<svg xmlns="http://www.w3.org/2000/svg" xmlns:xlink="http://www.w3.org/1999/xlink" viewBox="0 0 435 435"><defs><style>.cls-1{fill:#002ed3;}.cls-2{isolation:isolate;}.cls-3{clip-path:url(#clip-path);}.cls-4{fill:#eb3424;}.cls-5{fill:#8c71de;}.cls-5,.cls-6{mix-blend-mode:color-dodge;}.cls-7{fill:none;stroke:#388a99;stroke-miterlimit:10;stroke-width:20px;}.cls-8{fill:#daff00;}</style><clipPath id="clip-path"><circle id="SVGID" class="cls-1" cx="217.5" cy="217.5" r="216.87"/></clipPath></defs><g class="cls-2"><g id="Layer_2" data-name="Layer 2"><circle id="SVGID-2" data-name="SVGID" class="cls-1" cx="217.5" cy="217.5" r="216.87"/><g class="cls-3"><circle id="SVGID-3" data-name="SVGID" class="cls-1" cx="217.5" cy="217.5" r="216.87"/></g><path class="cls-4" d="M282.23,16.4h0A134.52,134.52,0,0,0,147.71,150.92h0A134.46,134.46,0,0,1,282.18,285.38h0A134.52,134.52,0,0,0,416.69,150.87h0A134.46,134.46,0,0,1,282.23,16.4Z"/><path class="cls-5" d="M147.74,150.9h0A134.52,134.52,0,0,0,13.22,285.41h0A134.46,134.46,0,0,1,147.69,419.88h0A134.52,134.52,0,0,0,282.2,285.36h0A134.46,134.46,0,0,1,147.74,150.9Z"/><g class="cls-6"><path class="cls-7" d="M231.64,107H182.81L138.52,245.81H101.26L144.94,107h-35.1L120,74.42H242.18Z"/><path class="cls-7" d="M297.32,360.67H202.83L219,310.25h33.1L245.3,330h29.8l10.39-26.39-50.35-42.21,21.17-62.71h97.26l-17,48.18H304.24l6-17.26H279.07l-7.36,22.32,48.87,41.61Z"/></g><path class="cls-8" d="M241.36,149.58H198L158.68,272.82H125.59l38.78-123.24H133.2l9-29H250.73Z"/><path class="cls-8" d="M270,322.92h-83.9l14.39-44.78h29.39l-6.07,17.51h26.46l9.23-23.43-44.71-37.49,18.8-55.68H320l-15.11,42.78h-28.7l5.36-15.32H253.78l-6.53,19.81,43.4,36.95Z"/></g></g></svg>